# xmcd CD database file
#
# Track frame offsets:
#	182
#	34705
#	84872
#	126212
#	155325
#	184187
#	207772
#	232777
#	244627
#	288387
#
# Disc length: 4179 seconds
#
# Revision: 0
# Processed by: cddbd v1.5.1PL0 Copyright (c) Steve Scherf et al.
# Submitted via: CDex 1.51
#
DISCID=7610510a
DTITLE=Tete Montoliu - Tete Montoliu BEST
DYEAR=1900
DGENRE=Jazz
TTITLE0=Sweet Georgia Fame
TTITLE1=What's new
TTITLE2=Will be together
TTITLE3=Giant Steps
TTITLE4=El neu carrer
TTITLE5=Here's that rainy day
TTITLE6=Tootie's tempo
TTITLE7=When fall in love
TTITLE8=Jo vull que m'acariciis
TTITLE9=Round about midnight
EXTD=
EXTT0=
EXTT1=
EXTT2=
EXTT3=
EXTT4=
EXTT5=
EXTT6=
EXTT7=
EXTT8=
EXTT9=
PLAYORDER=
